# File created by Blade
# Date/Time:  Tue Sep 30 19:31:19 2014
#---------------------------------------------------------
:version 1.10
:name HOM
:units
  mass 1.0
  length 1.000000
  angle deg
:documentation
     Acclaim Skeleton File
:root
   axis xyz
   order TX TY TZ RX RY RZ
   position 0.000000 0.000000 0.000000
   orientation 0 0 0
:bonedata
   begin
      id 1
      name Spine_dum
      direction 0.000000 1.000000 0.000000
      length 3.241213
      axis 0.0 0.0 0.0 xyz
   end
   begin
      id 2
      name LeftUpLeg_dum
      direction 1.000000 0.000000 0.000000
      length 3.434019
      axis 0.0 0.0 0.0 xyz
   end
   begin
      id 3
      name RightUpLeg_dum
      direction -1.000000 0.000000 0.000000
      length 3.434019
      axis 0.0 0.0 0.0 xyz
   end
   begin
      id 4
      name Spine
      direction 0.000000 1.000000 0.000000
      length 0.000000
      axis 0.0 0.0 0.0 xyz
      dof rx ry rz
   end
   begin
      id 5
      name Spine_dum1
      direction 0.000000 1.000000 0.000000
      length 18.382958
      axis 0.0 0.0 0.0 xyz
   end
   begin
      id 6
      name Spine_dum2
      direction 0.000000 1.000000 0.000000
      length 12.828261
      axis 0.0 0.0 0.0 xyz
   end
   begin
      id 7
      name Spine_dum3
      direction 0.000000 1.000000 0.000000
      length 12.828261
      axis 0.0 0.0 0.0 xyz
   end
   begin
      id 8
      name Head
      direction 0.000000 1.000000 0.000000
      length 4.527550
      axis 0.0 0.0 0.0 xyz
      dof rx ry rz
   end
   begin
      id 9
      name LeftShoulder
      direction 1.000000 0.000000 0.000000
      length 7.748055
      axis 0.0 0.0 -90.0 xyz
      dof rx ry rz
   end
   begin
      id 10
      name LeftArm
      direction 1.000000 0.000000 0.000000
      length 10.635614
      axis 0.0 0.0 -90.0 xyz
      dof rx ry rz
   end
   begin
      id 11
      name LeftForeArm
      direction 1.000000 0.000000 0.000000
      length 8.346755
      axis 0.0 0.0 -90.0 xyz
      dof ry rz rx
   end
   begin
      id 12
      name LeftHand
      direction 0.000000 0.000000 0.000000
      length 0.000000
      axis 0.0 0.0 -90.0 xyz
      dof rx ry rz
   end
   begin
      id 13
      name LeftHand_dum1
      direction 0.000000 0.000000 0.000000
      length 0.000000
      axis 0.0 0.0 -90.0 xyz
   end
   begin
      id 14
      name LeftHand_dum2
      direction 1.000000 0.000000 0.000000
      length 3.937000
      axis 0.0 0.0 -90.0 xyz
   end
   begin
      id 15
      name LeftHandThumb1
      direction 0.000000 0.000000 1.000000
      length 3.937000
      axis 0.0 0.0 -90.0 xyz
      dof rx rz ry
   end
   begin
      id 16
      name RightShoulder
      direction -1.000000 0.000000 0.000000
      length 7.748055
      axis 0.0 0.0 90.0 xyz
      dof rx ry rz
   end
   begin
      id 17
      name RightArm
      direction -1.000000 0.000000 0.000000
      length 10.635614
      axis 0.0 0.0 90.0 xyz
      dof rx ry rz
   end
   begin
      id 18
      name RightForeArm
      direction -1.000000 0.000000 0.000000
      length 8.346755
      axis 0.0 0.0 90.0 xyz
      dof ry rz rx
   end
   begin
      id 19
      name RightHand
      direction 0.000000 0.000000 0.000000
      length 0.000000
      axis 0.0 0.0 90.0 xyz
      dof rx ry rz
   end
   begin
      id 20
      name RightHand_dum1
      direction 0.000000 0.000000 0.000000
      length 0.000000
      axis 0.0 0.0 90.0 xyz
   end
   begin
      id 21
      name RightHand_dum2
      direction -1.000000 0.000000 0.000000
      length 3.937000
      axis 0.0 0.0 90.0 xyz
   end
   begin
      id 22
      name RightHandThumb1
      direction 0.000000 0.000000 1.000000
      length 3.937000
      axis 0.0 0.0 90.0 xyz
      dof rx rz ry
   end
   begin
      id 23
      name LeftUpLeg
      direction 0.000000 -1.000000 0.000000
      length 15.713025
      axis 0.0 0.0 0.0 xyz
      dof rx ry rz
   end
   begin
      id 24
      name LeftLeg
      direction 0.000000 -1.000000 0.000000
      length 14.435119
      axis 0.0 0.0 0.0 xyz
      dof rx ry rz
   end
   begin
      id 25
      name LeftFoot
      direction 0.000000 -0.258819 0.965926
      length 4.938895
      axis 15.0 0.0 0.0 xyz
      dof rx ry rz
   end
   begin
      id 26
      name LeftToeBase
      direction 0.000000 0.000000 1.000000
      length 2.952750
      axis 0.0 0.0 0.0 xyz
      dof rx ry rz
   end
   begin
      id 27
      name RightUpLeg
      direction 0.000000 -1.000000 0.000000
      length 15.713025
      axis 0.0 0.0 0.0 xyz
      dof rx ry rz
   end
   begin
      id 28
      name RightLeg
      direction 0.000000 -1.000000 0.000000
      length 14.435119
      axis 0.0 0.0 0.0 xyz
      dof rx ry rz
   end
   begin
      id 29
      name RightFoot
      direction 0.000000 -0.258819 0.965926
      length 4.938895
      axis 15.0 0.0 0.0 xyz
      dof rx ry rz
   end
   begin
      id 30
      name RightToeBase
      direction 0.000000 0.000000 1.000000
      length 2.952750
      axis 0.0 0.0 0.0 xyz
      dof rx ry rz
   end
:hierarchy
   begin
      root Spine_dum LeftUpLeg_dum RightUpLeg_dum
      Spine_dum Spine
      LeftUpLeg_dum LeftUpLeg
      RightUpLeg_dum RightUpLeg
      Spine Spine_dum1 Spine_dum2 Spine_dum3
      Spine_dum1 Head
      Spine_dum2 LeftShoulder
      Spine_dum3 RightShoulder
      LeftShoulder LeftArm
      LeftArm LeftForeArm
      LeftForeArm LeftHand
      LeftHand LeftHand_dum1 LeftHand_dum2
      LeftHand_dum1 LeftHandThumb1
      RightShoulder RightArm
      RightArm RightForeArm
      RightForeArm RightHand
      RightHand RightHand_dum1 RightHand_dum2
      RightHand_dum1 RightHandThumb1
      LeftUpLeg LeftLeg
      LeftLeg LeftFoot
      LeftFoot LeftToeBase
      RightUpLeg RightLeg
      RightLeg RightFoot
      RightFoot RightToeBase
   end

# File created by Blade
# Date/Time:  Thu Sep 25 17:54:10 2014
# Frame Rate: 120.000 fps
#------------------------------------------------------
:FULLY-SPECIFIED
:DEGREES
677
root -0.507238 32.561680 -5.322210 28.563028 1.729370 0.802829
Spine -32.973845 2.622145 -2.712511
Head 29.148396 -14.825778 1.514681
LeftShoulder -24.705476 51.365653 31.093875
LeftArm 124.005188 -50.043197 -157.846599
LeftForeArm -58.773413 0.000000 131.414704
LeftHand -13.366985 -0.000000 -9.415730
LeftHandThumb1 -26.253704 0.000000 33.147579
RightShoulder -85.739556 50.537093 -158.533489
RightArm 57.347169 -1.551460 62.162205
RightForeArm 25.083807 -0.000000 131.130408
RightHand 5.347690 -0.000000 12.210376
RightHandThumb1 -24.326973 -0.000000 -32.862282
LeftUpLeg -20.709340 4.631479 -0.034102
LeftLeg -1.985043 -0.000000 0.000000
LeftFoot -4.321607 -2.783441 -3.134400
LeftToeBase 2.783861 -0.000000 -0.000000
RightUpLeg -20.426801 -6.866359 4.277304
RightLeg -2.484190 -0.000000 0.000000
RightFoot -8.755176 -2.347560 10.685124
RightToeBase 15.600952 -0.000000 -0.000000
678
root -0.504219 32.562437 -5.325561 28.552760 1.722431 0.790792
Spine -32.966279 2.627560 -2.664995
Head 29.148006 -14.750834 1.590215
LeftShoulder -24.680138 51.312649 31.107646
LeftArm 124.123820 -50.074798 -157.843731
LeftForeArm -58.765108 -0.000000 131.373805
LeftHand -13.361714 -0.000000 -9.411670
LeftHandThumb1 -26.253704 0.000000 33.147579
RightShoulder -85.730828 50.541876 -158.494826
RightArm 57.312038 -1.527233 62.087204
RightForeArm 25.181668 -0.000000 131.057442
RightHand 5.416519 0.000000 12.154910
RightHandThumb1 -24.326973 -0.000000 -32.862282
LeftUpLeg -20.704971 4.648886 -0.033354
LeftLeg -1.986043 -0.000000 0.000000
LeftFoot -4.320744 -2.801245 -3.150535
LeftToeBase 2.820373 -0.000000 -0.000000
RightUpLeg -20.417304 -6.855981 4.272466
RightLeg -2.496117 -0.000000 0.000000
RightFoot -8.735942 -2.319792 10.722988
RightToeBase 15.596395 -0.000000 -0.000000
679
root -0.498721 32.562373 -5.328559 28.532983 1.717760 0.790874
Spine -32.947909 2.631894 -2.622326
Head 29.148630 -14.697169 1.645304
LeftShoulder -24.604870 51.239640 31.163099
LeftArm 124.254742 -50.156798 -157.854158
LeftForeArm -58.823449 -0.000000 131.327992
LeftHand -13.270994 -0.000000 -9.371100
LeftHandThumb1 -26.253704 0.000000 33.147579
RightShoulder -85.552680 50.549784 -158.271507
RightArm 57.377932 -1.448275 62.077596
RightForeArm 25.239874 -0.000000 130.997720
RightHand 5.435668 -0.000000 12.035836
RightHandThumb1 -24.326973 -0.000000 -32.862282
LeftUpLeg -20.686643 4.646418 -0.043942
LeftLeg -1.989062 -0.000000 0.000000
LeftFoot -4.320712 -2.791420 -3.116629
LeftToeBase 2.817875 -0.000000 -0.000000
RightUpLeg -20.407061 -6.867893 4.268039
RightLeg -2.492711 -0.000000 0.000000
RightFoot -8.712246 -2.320405 10.763806
RightToeBase 15.502029 -0.000000 -0.000000
680
root -0.493908 32.562500 -5.331413 28.514732 1.704423 0.790493
Spine -32.929359 2.645069 -2.591642
Head 29.155288 -14.654087 1.699899
LeftShoulder -24.481768 51.083034 31.261314
LeftArm 124.466955 -50.262857 -157.927036
LeftForeArm -58.866038 -0.000000 131.280717
LeftHand -13.313110 -0.000000 -9.371041
LeftHandThumb1 -26.253704 0.000000 33.147579
RightShoulder -85.399517 50.533974 -158.068954
RightArm 57.403104 -1.363330 62.081645
RightForeArm 25.362324 0.000000 130.921686
RightHand 5.471283 -0.000000 11.988813
RightHandThumb1 -24.326973 -0.000000 -32.862282
LeftUpLeg -20.673083 4.661939 -0.058437
LeftLeg -1.986544 -0.000000 0.000000
LeftFoot -4.324059 -2.802576 -3.109758
LeftToeBase 2.769900 -0.000000 -0.000000
RightUpLeg -20.393853 -6.867224 4.257237
RightLeg -2.493921 -0.000000 0.000000
RightFoot -8.710365 -2.325695 10.782891
RightToeBase 15.540521 -0.000000 -0.000000
681
root -0.489283 32.563012 -5.334521 28.506239 1.690205 0.790419
Spine -32.923601 2.653063 -2.563662
Head 29.155746 -14.616221 1.789887
LeftShoulder -24.473359 51.098727 31.302251
LeftArm 124.656749 -50.212771 -158.022802
LeftForeArm -58.844033 0.000000 131.241181
LeftHand -13.400951 -0.000000 -9.395971
LeftHandThumb1 -26.253704 0.000000 33.147579
RightShoulder -85.301433 50.530171 -157.938047
RightArm 57.356445 -1.298125 62.068956
RightForeArm 25.492331 -0.000000 130.851897
RightHand 5.553054 -0.000000 11.992393
RightHandThumb1 -24.326973 -0.000000 -32.862282
LeftUpLeg -20.665261 4.660671 -0.068356
LeftLeg -1.992059 -0.000000 0.000000
LeftFoot -4.324634 -2.790995 -3.113549
LeftToeBase 2.824570 -0.000000 -0.000000
RightUpLeg -20.393868 -6.866960 4.244659
RightLeg -2.491712 -0.000000 0.000000
RightFoot -8.706360 -2.311887 10.784939
RightToeBase 15.549400 -0.000000 -0.000000
682
root -0.484791 32.562924 -5.337680 28.494693 1.673049 0.783343
Spine -32.914797 2.653777 -2.515817
Head 29.188594 -14.573689 1.847624
LeftShoulder -24.443752 51.033809 31.336393
LeftArm 124.855365 -50.264797 -158.046305
LeftForeArm -58.880817 -0.000000 131.181792
LeftHand -13.377093 0.000000 -9.328885
LeftHandThumb1 -26.253704 0.000000 33.147579
RightShoulder -85.160721 50.529324 -157.747167
RightArm 57.350554 -1.177289 62.084197
RightForeArm 25.733722 -0.000000 130.784868
RightHand 5.558123 -0.000000 11.613725
RightHandThumb1 -24.326973 -0.000000 -32.862282
LeftUpLeg -20.652880 4.661577 -0.069391
LeftLeg -2.001199 -0.000000 0.000000
LeftFoot -4.323394 -2.783847 -3.124998
LeftToeBase 2.842479 -0.000000 -0.000000
RightUpLeg -20.391059 -6.863799 4.238937
RightLeg -2.490198 -0.000000 0.000000
RightFoot -8.698702 -2.314777 10.770477
RightToeBase 15.504776 -0.000000 -0.000000
683
root -0.480905 32.562981 -5.340515 28.474334 1.657489 0.775846
Spine -32.895606 2.677928 -2.484779
Head 29.200478 -14.499466 1.945404
LeftShoulder -24.352602 50.947928 31.448158
LeftArm 125.063515 -50.299286 -158.136727
LeftForeArm -58.801166 -0.000000 131.126321
LeftHand -13.433427 -0.000000 -9.352963
LeftHandThumb1 -26.253704 0.000000 33.147579
RightShoulder -84.862278 50.516354 -157.361538
RightArm 57.454311 -1.055152 62.017407
RightForeArm 25.853059 -0.000000 130.673669
RightHand 5.415437 -0.000000 11.749957
RightHandThumb1 -24.326973 -0.000000 -32.862282
LeftUpLeg -20.630787 4.658264 -0.066212
LeftLeg -2.010550 -0.000000 0.000000
LeftFoot -4.321993 -2.777196 -3.139534
LeftToeBase 2.828478 -0.000000 -0.000000
RightUpLeg -20.379913 -6.863372 4.236073
RightLeg -2.479980 -0.000000 0.000000
RightFoot -8.733562 -2.319125 10.689809
RightToeBase 15.657430 -0.000000 -0.000000
684
root -0.476066 32.562923 -5.342731 28.450588 1.638316 0.767474
Spine -32.874265 2.695097 -2.446634
Head 29.214857 -14.413693 2.051260
LeftShoulder -24.256715 50.779367 31.563732
LeftArm 125.253677 -50.427844 -158.144422
LeftForeArm -58.743617 -0.000000 131.047574
LeftHand -13.448413 -0.000000 -9.291974
LeftHandThumb1 -26.253704 0.000000 33.147579
RightShoulder -84.544401 50.501847 -156.970511
RightArm 57.532598 -0.890354 62.019554
RightForeArm 25.883481 -0.000000 130.555745
RightHand 5.695016 -0.000000 11.204195
RightHandThumb1 -24.326973 -0.000000 -32.862282
LeftUpLeg -20.604083 4.666124 -0.070460
LeftLeg -2.016812 -0.000000 0.000000
LeftFoot -4.328321 -2.768159 -3.133767
LeftToeBase 2.817788 -0.000000 -0.000000
RightUpLeg -20.370167 -6.883264 4.237017
RightLeg -2.467810 -0.000000 0.000000
RightFoot -8.690454 -2.255800 10.796082
RightToeBase 15.532402 -0.000000 -0.000000
685
root -0.471526 32.563564 -5.344531 28.418520 1.624273 0.759959
Spine -32.855855 2.721604 -2.411464
Head 29.271151 -14.330774 2.146535
LeftShoulder -24.168939 50.729979 31.663574
LeftArm 125.469193 -50.426466 -158.204012
LeftForeArm -58.711097 -0.000000 130.975871
LeftHand -13.434776 -0.000000 -9.301529
LeftHandThumb1 -26.253704 0.000000 33.147579
RightShoulder -84.224897 50.495632 -156.570927
RightArm 57.621470 -0.754869 62.004788
RightForeArm 26.259945 -0.000000 130.409675
RightHand 5.735429 -0.000000 11.004174
RightHandThumb1 -24.326973 -0.000000 -32.862282
LeftUpLeg -20.568799 4.667379 -0.070296
LeftLeg -2.024326 -0.000000 0.000000
LeftFoot -4.329728 -2.759085 -3.132983
LeftToeBase 2.853037 -0.000000 -0.000000
RightUpLeg -20.346195 -6.884081 4.230816
RightLeg -2.459701 -0.000000 0.000000
RightFoot -8.715744 -2.270298 10.725300
RightToeBase 15.662967 -0.000000 -0.000000
686
root -0.466828 32.563487 -5.347031 28.389379 1.611585 0.765459
Spine -32.829292 2.710208 -2.374806
Head 29.303021 -14.223149 2.250030
LeftShoulder -24.059775 50.587891 31.816485
LeftArm 125.666405 -50.530816 -158.268757
LeftForeArm -58.687336 0.000000 130.899750
LeftHand -13.433137 0.000000 -9.306988
LeftHandThumb1 -26.253704 0.000000 33.147579
RightShoulder -84.006542 50.498306 -156.264032
RightArm 57.659026 -0.625223 61.969257
RightForeArm 26.386749 0.000000 130.233067
RightHand 5.682190 0.000000 11.178834
RightHandThumb1 -24.326973 -0.000000 -32.862282
LeftUpLeg -20.542050 4.668638 -0.084688
LeftLeg -2.024402 -0.000000 0.000000
LeftFoot -4.325502 -2.760603 -3.128953
LeftToeBase 2.817460 -0.000000 -0.000000
RightUpLeg -20.306825 -6.842838 4.190857
RightLeg -2.487421 -0.000000 0.000000
RightFoot -8.681481 -2.276640 10.837529
RightToeBase 15.559764 -0.000000 -0.000000
687
root -0.462106 32.563997 -5.349299 28.360288 1.613706 0.766785
Spine -32.804240 2.705545 -2.337079
Head 29.342719 -14.130208 2.344178
LeftShoulder -23.964972 50.462904 31.956849
LeftArm 125.881132 -50.594176 -158.326230
LeftForeArm -58.615894 -0.000000 130.816009
LeftHand -13.476323 0.000000 -9.309238
LeftHandThumb1 -26.253704 0.000000 33.147579
RightShoulder -83.761136 50.502887 -155.918002
RightArm 57.721860 -0.482002 61.915423
RightForeArm 26.595742 -0.000000 130.018704
RightHand 5.718821 -0.000000 11.018437
RightHandThumb1 -24.326973 -0.000000 -32.862282
LeftUpLeg -20.517905 4.654912 -0.087548
LeftLeg -2.020477 -0.000000 0.000000
LeftFoot -4.327785 -2.754128 -3.143847
LeftToeBase 2.843655 -0.000000 -0.000000
RightUpLeg -20.281644 -6.848892 4.178752
RightLeg -2.487859 -0.000000 0.000000
RightFoot -8.673638 -2.278263 10.858608
RightToeBase 15.542235 -0.000000 -0.000000
688
root -0.456481 32.564710 -5.350886 28.330356 1.621501 0.764224
Spine -32.779576 2.690531 -2.281294
Head 29.380242 -14.002811 2.464324
LeftShoulder -23.854067 50.353418 32.107616
LeftArm 126.119069 -50.620227 -158.439173
LeftForeArm -58.578395 -0.000000 130.734199
LeftHand -13.426919 -0.000000 -9.356886
LeftHandThumb1 -26.253704 0.000000 33.147579
RightShoulder -83.656847 50.531921 -155.734401
RightArm 57.708013 -0.410368 61.824728
RightForeArm 26.813717 -0.000000 129.743940
RightHand 5.891362 0.000000 10.815690
RightHandThumb1 -24.326973 -0.000000 -32.862282
LeftUpLeg -20.497798 4.650001 -0.091408
LeftLeg -2.011161 -0.000000 0.000000
LeftFoot -4.326748 -2.757459 -3.133933
LeftToeBase 2.858819 -0.000000 -0.000000
RightUpLeg -20.277522 -6.906607 4.191490
RightLeg -2.445352 -0.000000 0.000000
RightFoot -8.679768 -2.235092 10.830663
RightToeBase 15.531856 -0.000000 -0.000000
689
root -0.451735 32.564789 -5.352637 28.300372 1.628352 0.764127
Spine -32.748603 2.683974 -2.245737
Head 29.407441 -13.924681 2.594423
LeftShoulder -23.704553 50.059256 32.286030
LeftArm 126.376080 -50.830591 -158.430541
LeftForeArm -58.531375 -0.000000 130.622130
LeftHand -13.434407 -0.000000 -9.269971
LeftHandThumb1 -26.253704 0.000000 33.147579
RightShoulder -83.368654 50.499338 -155.363557
RightArm 57.730308 -0.254794 61.806185
RightForeArm 27.188678 -0.000000 129.504556
RightHand 5.893977 0.000000 10.720358
RightHandThumb1 -24.326973 -0.000000 -32.862282
LeftUpLeg -20.472474 4.630533 -0.090900
LeftLeg -2.005400 -0.000000 0.000000
LeftFoot -4.332309 -2.741064 -3.113647
LeftToeBase 2.821309 -0.000000 -0.000000
RightUpLeg -20.233518 -6.882163 4.170867
RightLeg -2.477575 -0.000000 0.000000
RightFoot -8.694602 -2.295917 10.743021
RightToeBase 15.652100 -0.000000 -0.000000
